<svg xmlns="http://www.w3.org/2000/svg" xml:space="preserve" viewBox="0 0 500 500">
  <path fill="#026efe" d="m438 270 16 18c9 10 7 26-2 36q-14 16-29 30l-18 18-1 5v22q-1 7-8 8l-20-1-9 3-36 37q-23 23-47 0l-16-16 18-18 9 10 6 5q6 5 11-1l37-37q10-11 26-8h3v-6q-3-13 7-22l43-44q7-5 1-12l-15-14 19-19zm-40-107-5-5q-13-11-10-26v-4h-11q-10 0-17-7l-42-43c-6-5-8-6-14-1l-15 15-8-9-10-9 27-24c11-8 26-5 36 5l44 44q3 3 8 3l17-1q13 0 12 13l-1 6c-1 14-1 14 9 24l31 32q21 21 1 44l-18 18-17-18 12-12c7-7 7-9 0-16z"/>
  <path fill="#026efd" d="m155 431-28-27q-2-3-7-3l-20 1q-8-1-9-9l1-21q0-4-3-6l-38-39c-14-13-14-31 0-44l17-18 18 18-14 14q-6 6 0 12l32 32c10 9 18 19 12 34h9q11-1 19 6l44 44q6 8 14 0l13-13 18 18c-10 8-17 21-31 26q-16 6-30-8z"/>
  <path fill="#026efe" d="m206 81-5-4q-7-6-13 0l-35 35q-11 14-28 10h-2v1q3 19-11 31l-40 39q-6 7 0 13l14 14-18 17-20-20c-11-12-9-29 2-41l44-43q3-4 3-8l-1-19q0-10 11-10l20 1 5-3 38-38q22-21 45 0l18 18-18 17z"/>
  <path fill="#fefefe" d="M239 185q-37-1-70-15l-9-6q-10-8 1-15l18-10 23-5q9-4 20-4c16-1 32-4 48 0l31 3q22 4 40 15 13 9 0 18-19 11-42 15-28 6-60 4"/>
  <path fill="#fefefe" d="m171 234-9-5q-8-5-7-14v-26c30 16 63 20 96 20s66-4 96-20v31q-2 7-8 9l-21 9q-15 5-29 7-28 6-58 2-21-2-43-7-9-2-17-6"/>
  <path fill="#fefefe" d="m189 264 18 4a270 270 0 0 0 113-6l27-9 1 6v20q0 8-7 12-14 9-31 13-35 9-71 6l-39-4-33-12q-5-1-8-6-3-3-4-8v-27z"/>
  <path fill="#fefefe" d="m223 333 43 1q27-1 53-9l28-10v29q-1 6-6 9-18 13-39 15-58 13-117-4-12-3-23-10-8-4-7-13v-25q20 7 41 12z"/>
</svg>